HIERARCHY
ROOT Hips
{
	OFFSET 0.00000 0.00000 0.00000
	CHANNELS 6 Xposition Yposition Zposition Zrotation Yrotation Xrotation 
	JOINT LHipJoint
	{
		OFFSET 0 0 0
		CHANNELS 3 Zrotation Yrotation Xrotation
		JOINT LeftUpLeg
		{
			OFFSET 1.57338 -1.94743 0.52196
			CHANNELS 3 Zrotation Yrotation Xrotation
			JOINT LeftLeg
			{
				OFFSET 2.60333 -7.15259 0.00000
				CHANNELS 3 Zrotation Yrotation Xrotation
				JOINT LeftFoot
				{
					OFFSET 2.77855 -7.63400 0.00000
					CHANNELS 3 Zrotation Yrotation Xrotation
					JOINT LeftToeBase
					{
						OFFSET 0.19847 -0.54529 2.28466
						CHANNELS 3 Zrotation Yrotation Xrotation
						End Site
						{
							OFFSET 0.00000 -0.00000 1.17993
						}
					}
				}
			}
		}
	}
	JOINT RHipJoint
	{
		OFFSET 0 0 0
		CHANNELS 3 Zrotation Yrotation Xrotation
		JOINT RightUpLeg
		{
			OFFSET -1.61527 -1.94743 0.52196
			CHANNELS 3 Zrotation Yrotation Xrotation
			JOINT RightLeg
			{
				OFFSET -2.53829 -6.97390 0.00000
				CHANNELS 3 Zrotation Yrotation Xrotation
				JOINT RightFoot
				{
					OFFSET -2.80762 -7.71387 0.00000
					CHANNELS 3 Zrotation Yrotation Xrotation
					JOINT RightToeBase
					{
						OFFSET -0.30536 -0.83898 2.28801
						CHANNELS 3 Zrotation Yrotation Xrotation
						End Site
						{
							OFFSET -0.00000 -0.00000 1.21323
						}
					}
				}
			}
		}
	}
	JOINT LowerBack
	{
		OFFSET 0 0 0
		CHANNELS 3 Zrotation Yrotation Xrotation
		JOINT Spine
		{
			OFFSET -0.04381 1.99497 -0.19778
			CHANNELS 3 Zrotation Yrotation Xrotation
			JOINT Spine1
			{
				OFFSET -0.01959 2.01295 -0.04372
				CHANNELS 3 Zrotation Yrotation Xrotation
				JOINT Neck
				{
					OFFSET 0 0 0
					CHANNELS 3 Zrotation Yrotation Xrotation
					JOINT Neck1
					{
						OFFSET -0.05459 1.76913 0.09708
						CHANNELS 3 Zrotation Yrotation Xrotation
						JOINT Head
						{
							OFFSET 0.09461 1.77368 -0.11172
							CHANNELS 3 Zrotation Yrotation Xrotation
							End Site
							{
								OFFSET 0.03812 1.78157 -0.04834
							}
						}
					}
				}
				JOINT LeftShoulder
				{
					OFFSET 0 0 0
					CHANNELS 3 Zrotation Yrotation Xrotation
					JOINT LeftArm
					{
						OFFSET 3.50922 1.24034 -0.28866
						CHANNELS 3 Zrotation Yrotation Xrotation
						JOINT LeftForeArm
						{
							OFFSET 5.40188 -0.00000 0.00000
							CHANNELS 3 Zrotation Yrotation Xrotation
							JOINT LeftHand
							{
								OFFSET 3.68559 -0.00000 0.00000
								CHANNELS 3 Zrotation Yrotation Xrotation
								JOINT LeftFingerBase
								{
									OFFSET 0 0 0
									CHANNELS 3 Zrotation Yrotation Xrotation
									JOINT LeftHandIndex1
									{
										OFFSET 0.61753 -0.00000 0.00000
										CHANNELS 3 Zrotation Yrotation Xrotation
										End Site
										{
											OFFSET 0.49787 -0.00000 0.00000
										}
									}
								}
								JOINT LThumb
								{
									OFFSET 0 0 0
									CHANNELS 3 Zrotation Yrotation Xrotation
									End Site
									{
										OFFSET 0.50547 -0.00000 0.50547
									}
								}
							}
						}
					}
				}
				JOINT RightShoulder
				{
					OFFSET 0 0 0
					CHANNELS 3 Zrotation Yrotation Xrotation
					JOINT RightArm
					{
						OFFSET -2.95373 1.39649 -0.27346
						CHANNELS 3 Zrotation Yrotation Xrotation
						JOINT RightForeArm
						{
							OFFSET -6.10670 -0.00000 -0.00000
							CHANNELS 3 Zrotation Yrotation Xrotation
							JOINT RightHand
							{
								OFFSET -3.63052 -0.00000 0.00000
								CHANNELS 3 Zrotation Yrotation Xrotation
								JOINT RightFingerBase
								{
									OFFSET 0 0 0
									CHANNELS 3 Zrotation Yrotation Xrotation
									JOINT RightHandIndex1
									{
										OFFSET -0.58385 -0.00000 0.00000
										CHANNELS 3 Zrotation Yrotation Xrotation
										End Site
										{
											OFFSET -0.47071 -0.00000 0.00000
										}
									}
								}
								JOINT RThumb
								{
									OFFSET 0 0 0
									CHANNELS 3 Zrotation Yrotation Xrotation
									End Site
									{
										OFFSET -0.47790 -0.00000 0.47790
									}
								}
							}
						}
					}
				}
			}
		}
	}
}
MOTION
Frames: 7
Frame Time: .0083333
1.9472 18.89 -4.0921 0 0 0 0 0 0 -21 0 0 0 0 0 0 0 0 0 0 0 0 0 0 21 0 0 0 0 0 0 0 0 0 0 0 0 0 0 0 0 0 0 0 0 0 0 -16 0 0 21 0 0 11 0 0 0 -8 0 0 0 0 0 0 0 0 0 0 0 0 0 0 0 0 0 0 0 0 8 0 0 0 0 0 0 0 0 0 0 0 0 0 0 0 0 0
1.9472 18.8900 -4.0921 1.8522 -12.2205 -2.8732 0.0000 0.0000 0.0000 0.0000 0.0000 0.0000 0.0000 0.0000 0.0000 0.0000 0.0000 0.0000 0.0000 0.0000 0.0000 0.0000 0.0000 0.0000 17.8278 18.2254 11.1772 -0.4572 -4.3374 12.0278 0.2316 -15.3606 -19.2146 -0.1920 2.8217 -7.7826 -3.5075 0.6026 6.0771 -1.5686 0.5280 0.9883 0.3101 0.2842 -2.4056 -9.3770 -4.7536 -8.7769 5.4469 -5.8831 13.0304 2.7846 -2.9516 5.8229 0.0000 0.0000 0.0000 -86.0100 1.4386 0.2851 18.6075 -28.9281 -4.8395 -0.0000 -0.0000 4.0193 25.7479 21.3632 9.9647 -7.1250 0.0000 -0.0000 -3.0965 53.4275 -0.6423 0.0000 0.0000 0.0000 82.6755 -3.1784 16.3044 -26.2094 37.4148 -9.0146 0.0000 -0.0000 -4.9908 -47.8677 12.4515 -13.4065 7.1250 -0.0000 -0.0000 -13.7106 -12.1417 -10.8428
1.9469 18.8898 -4.0917 1.9587 -12.1587 -2.9092 0.0000 0.0000 0.0000 0.0000 0.0000 0.0000 0.0000 0.0000 0.0000 0.0000 0.0000 0.0000 0.0000 0.0000 0.0000 0.0000 0.0000 0.0000 17.7128 18.2080 11.1435 -0.4672 -4.3841 12.1597 0.1992 -15.2297 -19.3983 -0.1776 2.7144 -7.4847 -3.6285 0.5942 6.0674 -1.5839 0.5089 0.9900 0.3637 0.2756 -2.3987 -9.3604 -4.7486 -8.8193 5.3809 -5.8676 13.1103 2.7612 -2.9478 5.8517 -0.0000 0.0000 0.0000 -86.0344 1.3801 0.8530 18.8754 -29.2636 -4.9698 -0.0000 -0.0000 3.4766 25.8340 22.0383 10.2964 -7.1250 0.0000 -0.0000 -3.1984 54.1674 -0.7212 -0.0000 0.0000 0.0000 82.5840 -3.1696 16.5894 -26.5060 37.7040 -9.1954 0.0000 -0.0000 -5.0256 -47.6921 12.4796 -13.3556 7.1250 -0.0000 -0.0000 -13.5940 -12.1530 -10.7416
1.9469 18.8909 -4.0906 1.9967 -12.1300 -2.9134 0.0000 0.0000 0.0000 0.0000 0.0000 0.0000 0.0000 0.0000 0.0000 0.0000 0.0000 0.0000 0.0000 0.0000 0.0000 0.0000 0.0000 0.0000 17.6635 18.1871 11.1147 -0.4706 -4.3999 12.2045 0.1951 -15.1917 -19.3873 -0.1825 2.7518 -7.5884 -3.6758 0.5896 6.0392 -1.5857 0.5010 0.9820 0.3892 0.2719 -2.3913 -9.3481 -4.7315 -8.8282 5.3471 -5.8422 13.1654 2.7505 -2.9375 5.8673 -0.0000 -0.0000 0.0000 -85.9938 1.3709 1.4971 19.1354 -29.5865 -5.0975 -0.0000 -0.0000 3.0824 25.9670 22.1773 10.4168 -7.1250 0.0000 -0.0000 -3.0992 54.3429 -0.7121 -0.0000 -0.0000 0.0000 82.4934 -3.1759 16.9486 -26.8114 37.9987 -9.3828 0.0000 -0.0000 -5.1018 -47.7618 12.4241 -13.3307 7.1250 -0.0000 -0.0000 -13.6504 -12.2095 -10.7724
1.9474 18.8917 -4.0916 1.9730 -12.0862 -2.8950 0.0000 0.0000 0.0000 0.0000 0.0000 0.0000 0.0000 0.0000 0.0000 0.0000 0.0000 0.0000 0.0000 0.0000 0.0000 0.0000 0.0000 0.0000 17.6905 18.1848 11.0646 -0.4745 -4.4179 12.2555 0.2049 -15.2535 -19.3680 -0.1860 2.7779 -7.6610 -3.6444 0.5826 6.0351 -1.5842 0.4930 0.9520 0.3737 0.2684 -2.4194 -9.3271 -4.7248 -8.7381 5.3364 -5.8427 13.1507 2.7455 -2.9389 5.8463 0.0000 -0.0000 0.0000 -85.8877 1.3945 2.2854 19.3572 -29.8601 -5.2075 -0.0000 -0.0000 2.6044 26.0221 21.8831 10.3129 -7.1250 0.0000 -0.0000 -2.9564 54.0387 -0.6573 0.0000 -0.0000 0.0000 82.4412 -3.1717 17.2765 -27.1083 38.2822 -9.5661 0.0000 -0.0000 -5.2598 -47.9559 12.2013 -13.1899 7.1250 -0.0000 -0.0000 -13.8234 -12.4621 -10.8425
1.9474 18.8916 -4.0936 1.9606 -12.0495 -2.8882 0.0000 0.0000 0.0000 0.0000 0.0000 0.0000 0.0000 0.0000 0.0000 0.0000 0.0000 0.0000 0.0000 0.0000 0.0000 0.0000 0.0000 0.0000 17.7173 18.1961 11.0626 -0.4750 -4.4202 12.2618 0.2031 -15.2760 -19.4255 -0.1790 2.7255 -7.5154 -3.6222 0.5808 6.0266 -1.5940 0.4917 0.9365 0.3512 0.2679 -2.4304 -9.2786 -4.7382 -8.6795 5.3060 -5.8690 13.1492 2.7268 -2.9524 5.8354 0.0000 -0.0000 0.0000 -85.8108 1.3620 2.8950 19.5901 -30.1454 -5.3240 -0.0000 -0.0000 2.3959 25.8780 21.5315 10.0950 -7.1250 0.0000 -0.0000 -3.0081 53.6332 -0.6390 0.0000 -0.0000 0.0000 82.3960 -3.1508 17.5847 -27.4179 38.5748 -9.7586 0.0000 -0.0000 -5.3719 -47.9218 11.9965 -12.9642 7.1250 -0.0000 -0.0000 -13.8489 -12.7547 -10.7764
1.9470 18.8913 -4.0936 1.9617 -12.0513 -2.9110 0.0000 0.0000 0.0000 0.0000 0.0000 0.0000 0.0000 0.0000 0.0000 0.0000 0.0000 0.0000 0.0000 0.0000 0.0000 0.0000 0.0000 0.0000 17.7127 18.1393 11.0899 -0.4720 -4.4062 12.2223 0.1970 -15.2206 -19.4106 -0.1810 2.7406 -7.5574 -3.6177 0.5926 6.0155 -1.6061 0.5082 0.9419 0.3350 0.2758 -2.4191 -9.1766 -4.7413 -8.7535 5.2198 -5.8721 13.2628 2.6809 -2.9547 5.8783 0.0000 -0.0000 0.0000 -85.7850 1.2736 3.3299 19.8472 -30.4578 -5.4537 -0.0000 -0.0000 2.3676 25.7351 21.7750 10.1380 -7.1250 0.0000 -0.0000 -3.2258 53.8660 -0.7037 0.0000 -0.0000 0.0000 82.3354 -3.1430 17.8837 -27.7367 38.8727 -9.9580 0.0000 -0.0000 -5.3395 -47.8357 12.1125 -13.0454 7.1250 -0.0000 -0.0000 -13.7681 -12.6185 -10.7500
